<svg width="24" height="24" viewBox="0 0 24 24" fill="none" xmlns="http://www.w3.org/2000/svg">
<path fill-rule="evenodd" clip-rule="evenodd" d="M14.9192 4.27344C15.1671 4.27344 15.6894 4.31692 16.1732 4.62261C16.7112 4.96255 17.108 5.56959 17.108 6.48058C17.108 6.97718 16.9828 7.44451 16.7119 7.8543C16.6897 7.8878 16.6657 7.91984 16.642 7.95201H17.4728C18.4801 7.95201 19.2967 8.77549 19.2967 9.79129V11.2627C19.2967 12.1525 18.6701 12.8942 17.8376 13.0646V17.5163C17.8376 18.7353 16.8576 19.7234 15.6488 19.7234H8.35299C7.14418 19.7234 6.16424 18.7353 6.16424 17.5163V13.0646C5.33176 12.8942 4.70508 12.1525 4.70508 11.2627V9.79129C4.70508 8.77549 5.52169 7.95201 6.52904 7.95201H7.35979C7.3361 7.91984 7.31212 7.8878 7.28997 7.8543C7.01905 7.44451 6.89383 6.97718 6.89383 6.48058C6.89383 5.56959 7.2906 4.96255 7.82861 4.62261C8.31246 4.31692 8.83475 4.27344 9.08258 4.27344C10.5221 4.27344 11.4533 4.99527 12.0009 5.89C12.5486 4.99527 13.4797 4.27344 14.9192 4.27344ZM7.62341 17.5163C7.62341 17.9226 7.95006 18.252 8.35299 18.252H11.2713V13.102H7.62341V17.5163ZM12.7305 18.252H15.6488C16.0518 18.252 16.3784 17.9226 16.3784 17.5163V13.102H12.7305V18.252ZM6.52904 9.42344C6.32757 9.42344 6.16424 9.58813 6.16424 9.79129V11.2627L6.17137 11.3367C6.20048 11.4806 6.31302 11.594 6.45565 11.6234L6.52904 11.6306H11.2713V9.42344H6.52904ZM12.7305 11.6306H17.4728L17.5462 11.6234C17.6888 11.594 17.8013 11.4806 17.8305 11.3367L17.8376 11.2627V9.79129C17.8376 9.58813 17.6743 9.42344 17.4728 9.42344H12.7305V11.6306ZM9.08258 5.74487C8.96564 5.74487 8.75831 5.7723 8.60379 5.86988C8.53652 5.91238 8.48169 5.96638 8.44063 6.04231C8.39924 6.11896 8.35299 6.25241 8.35299 6.48058C8.35299 6.7197 8.41017 6.89612 8.50404 7.03811C8.60096 7.18472 8.76586 7.33753 9.0441 7.47782C9.50581 7.71061 10.2112 7.87211 11.2029 7.9283C11.1358 7.53435 11.0143 7.11336 10.8111 6.74929C10.4899 6.17427 9.98293 5.74487 9.08258 5.74487ZM14.9192 5.74487C14.0189 5.74487 13.5119 6.17427 13.1908 6.74929C12.9875 7.11336 12.866 7.53435 12.7989 7.9283C13.7906 7.87211 14.496 7.71061 14.9577 7.47782C15.236 7.33753 15.4009 7.18472 15.4978 7.03811C15.5917 6.89612 15.6488 6.7197 15.6488 6.48058C15.6488 6.25241 15.6026 6.11896 15.5612 6.04231C15.5201 5.96638 15.4653 5.91238 15.398 5.86988C15.2435 5.7723 15.0362 5.74487 14.9192 5.74487Z" fill="#717171"/>
</svg>
