<svg preserveAspectRatio="none" overflow="visible" style="display: block;" width="38.3994" height="38.3999" viewBox="0 0 38.3994 38.3999" fill="none" xmlns="http://www.w3.org/2000/svg">
<g id="Union">
<path d="M16.0001 2.4001C16 1.07462 14.9255 5.66583e-05 13.6 2.23905e-09C12.2745 -5.66359e-05 11.2 1.07441 11.2001 2.3999L11.2015 34.3999C11.2015 35.7254 12.2761 36.8 13.6016 36.8C14.9271 36.8001 16.0015 35.7256 16.0015 34.4001L16.0001 2.4001Z" fill="white"/>
<path d="M4.8 12.3999C4.79994 11.0744 3.72538 9.99988 2.3999 9.99982C1.07441 9.99976 -5.66754e-05 11.0742 2.24218e-09 12.3997L0.000512253 24.3997C0.000568844 25.7252 1.07513 26.7998 2.40062 26.7998C3.7261 26.7999 4.80057 25.7254 4.80051 24.3999L4.8 12.3999Z" fill="white"/>
<path d="M24.8 5.99982C26.1255 5.99982 27.2 7.07433 27.2 8.39982V20.1476C25.4335 20.5649 23.8062 21.3426 22.4 22.3987L22.4 8.39982C22.4 7.07433 23.4745 5.99982 24.8 5.99982Z" fill="white"/>
<path d="M33.5994 19.7998H38.3994L38.3992 15.3999C38.3992 14.0744 37.3246 12.9999 35.9991 12.9998C34.6736 12.9998 33.5992 14.0742 33.5992 15.3997L33.5994 19.7998Z" fill="white"/>
<path d="M30.4647 24.8677C30.7558 24.244 31.6427 24.244 31.9338 24.8677L32.906 26.9509C33.4697 28.1587 34.4405 29.1295 35.6482 29.6931L37.7314 30.6654C38.3552 30.9564 38.3552 31.8434 37.7314 32.1345L35.6482 33.1067C34.4405 33.6704 33.4697 34.6411 32.906 35.8489L31.9338 37.9321C31.6427 38.5558 30.7558 38.5558 30.4647 37.9321L29.4924 35.8489C28.9288 34.6411 27.958 33.6704 26.7503 33.1067L24.667 32.1345C24.0433 31.8434 24.0433 30.9564 24.667 30.6654L26.7503 29.6931C27.958 29.1295 28.9288 28.1587 29.4924 26.9509L30.4647 24.8677Z" fill="white"/>
</g>
</svg>
